<svg xmlns="http://www.w3.org/2000/svg" viewBox="0 0 128 128">
  <defs>
    <linearGradient id="a" x1="13.577" x2="108.323" y1="120.117" y2="25.371" gradientUnits="userSpaceOnUse">
      <stop offset="0" stop-color="#c757bc"/>
      <stop offset=".5" stop-color="#cd6799"/>
      <stop offset="1" stop-color="#d48574"/>
    </linearGradient>
    <linearGradient id="b" x1="23.163" x2="74.263" y1="51.49" y2="102.59" gradientUnits="userSpaceOnUse">
      <stop offset="0" stop-color="#073042"/>
      <stop offset=".5" stop-color="#16394b"/>
      <stop offset="1" stop-color="#3c626e"/>
    </linearGradient>
    <linearGradient id="c" x1="45.77" x2="45.77" y1="37.752" y2="126.262" gradientUnits="userSpaceOnUse">
      <stop offset="0" stop-color="#c757bc"/>
      <stop offset=".5" stop-color="#cd6799"/>
      <stop offset="1" stop-color="#d48574"/>
    </linearGradient>
    <linearGradient id="d" x1="82.23" x2="82.23" y1="1.738" y2="90.248" gradientUnits="userSpaceOnUse">
      <stop offset="0" stop-color="#c757bc"/>
      <stop offset=".5" stop-color="#cd6799"/>
      <stop offset="1" stop-color="#d48574"/>
    </linearGradient>
  </defs>
  <path fill="url(#a)" d="M11.5 6.5h105v115h-105z"/>
  <path fill="url(#b)" d="M11.5 6.5h105v105h-105z"/>
  <path fill="#fff" d="M32 82l-3-6H15l-3 6h-6l14-28h4l14 28zm-15-11h10l-5-10z"/>
  <path fill="#073042" d="M32 82l-3-6H15l-3 6h-6l14-28h4l14 28zm-15-11h10l-5-10z"/>
  <path fill="url(#c)" d="M27.582 82.418l-2.836-5.672-9.328.004-2.836 5.668-5.668-.004 13.25-26.5h3.836l13.25 26.5zM17.086 71.75h9.496l-4.748-9.5z" opacity=".2"/>
  <path fill="#fff" d="M59.504 66.414c0 1.527-.22 2.93-.66 4.21-.44 1.282-1.066 2.387-1.88 3.317-.815.93-1.807 1.66-2.978 2.19-1.17.53-2.49.795-3.96.795-1.47 0-2.796-.265-3.98-.795-1.184-.53-2.19-1.26-3.02-2.19-.83-.93-1.47-2.035-1.92-3.316-.45-1.282-.675-2.684-.675-4.21V54h5.832v12.414c0 .75.084 1.46.254 2.137.17.676.434 1.27.793 1.777.36.508.82.914 1.383 1.22.564.304 1.237.456 2.02.456.782 0 1.456-.152 2.02-.457.564-.306 1.024-.712 1.383-1.22.36-.508.624-1.1.793-1.777.17-.677.254-1.386.254-2.137V54h5.832v12.414zm-10.55-17.04h4.914v5.212h-4.914zm5.914 0h5.017v5.212h-5.016z"/>
  <path fill="#073042" d="M59.504 66.414c0 1.527-.22 2.93-.66 4.21-.44 1.282-1.066 2.387-1.88 3.317-.815.93-1.807 1.66-2.978 2.19-1.17.53-2.49.795-3.96.795-1.47 0-2.796-.265-3.98-.795-1.184-.53-2.19-1.26-3.02-2.19-.83-.93-1.47-2.035-1.92-3.316-.45-1.282-.675-2.684-.675-4.21V54h5.832v12.414c0 .75.084 1.46.254 2.137.17.676.434 1.27.793 1.777.36.508.82.914 1.383 1.22.564.304 1.237.456 2.02.456.782 0 1.456-.152 2.02-.457.564-.306 1.024-.712 1.383-1.22.36-.508.624-1.1.793-1.777.17-.677.254-1.386.254-2.137V54h5.832v12.414zm-10.55-17.04h4.914v5.212h-4.914zm5.914 0h5.017v5.212h-5.016z"/>
  <path fill="url(#d)" d="M58.836 66.75c0 1.445-.208 2.773-.622 3.984-.414 1.213-1.008 2.26-1.78 3.14-.772.88-1.71 1.57-2.817 2.073-1.107.502-2.356.754-3.746.754-1.392 0-2.646-.252-3.766-.754-1.12-.502-2.072-1.193-2.856-2.074-.784-.88-1.39-1.925-1.818-3.136-.428-1.213-.64-2.54-.64-3.986V54.836h5.516v11.75c0 .71.08 1.382.238 2.023.16.64.41 1.202.75 1.682.34.48.776.865 1.31 1.155.532.29 1.17.434 1.91.434.74 0 1.377-.145 1.91-.435.532-.29.968-.674 1.31-1.155.34-.48.59-1.04.75-1.682.16-.64.238-1.312.238-2.023V54.836h5.516v11.915zm-9.98-16.104h4.648v4.932h-4.648zm5.59 0h4.746v4.932h-4.747z" opacity=".2"/>
</svg>