<svg xmlns="http://www.w3.org/2000/svg" viewBox="0 0 24 24">
  <path fill="#4EAA25" d="M21.038 4.9l-7.577-4.498C13.009.134 12.505 0 12 0c-.505 0-1.009.134-1.462.403L2.961 4.9C2.057 5.437 1.5 6.429 1.5 7.503v8.995c0 1.073.557 2.066 1.462 2.603l7.577 4.497c.453.27.957.402 1.462.402.232 0 .463-.034.69-.1.034-.012.068-.022.1-.035.142-.047.282-.107.418-.178l.004-.002 7.574-4.496c.905-.537 1.462-1.529 1.462-2.602V7.503c.001-1.074-.556-2.066-1.461-2.603zM16.182 14.5c0 .247-.104.447-.31.447h-.672c-.203 0-.31-.2-.31-.447v-2.534l-1.913 2.96c-.063.086-.141.139-.25.139h-.02c-.107 0-.19-.053-.25-.139l-1.907-2.96v2.534c0 .247-.107.447-.311.447h-.671c-.207 0-.31-.2-.31-.447V9.544c0-.247.103-.447.31-.447h.647c.107 0 .185.051.247.139l2.217 3.477 2.22-3.477c.062-.088.139-.14.246-.14h.647c.206 0 .31.2.31.448v4.956zm-8.873-.49c-.32.246-.746.424-1.28.424-1.136 0-1.773-.71-1.773-1.627v-.02c0-.925.648-1.62 1.773-1.62.534 0 .96.176 1.28.423v-.424c0-.247.107-.447.31-.447h.672c.206 0 .31.2.31.447v3.333c0 .247-.104.447-.31.447h-.672c-.203 0-.31-.2-.31-.447v-.489zm.024-1.222c0-.495-.393-.873-.954-.873-.56 0-.953.375-.953.873v.02c0 .496.393.873.953.873.561 0 .954-.375.954-.873v-.02z"/>
</svg>
