<svg xmlns="http://www.w3.org/2000/svg" viewBox="0 0 24 24">
  <path fill="#512BD4" d="M1.194 7.543v8.913c0 1.103.588 2.122 1.544 2.674l7.718 4.456a3.086 3.086 0 0 0 3.088 0l7.718-4.456a3.087 3.087 0 0 0 1.544-2.674V7.543a3.084 3.084 0 0 0-1.544-2.673L13.544.414a3.086 3.086 0 0 0-3.088 0L2.738 4.87a3.085 3.085 0 0 0-1.544 2.673Zm9.014 8.552a4.963 4.963 0 0 1-4.957-4.958 4.963 4.963 0 0 1 4.957-4.957 4.95 4.95 0 0 1 4.172 2.287l-2.076 1.197a2.478 2.478 0 0 0-2.096-1.156c-1.37 0-2.485 1.116-2.485 2.486 0 1.37 1.116 2.485 2.485 2.485a2.48 2.48 0 0 0 2.096-1.155l2.076 1.197a4.95 4.95 0 0 1-4.172 2.286zm8.556-4.166h-.79v.79h-.79v-.79h-.79v-.79h.79v-.79h.79v.79h.79zm2.166 0h-.79v.79h-.79v-.79h-.79v-.79h.79v-.79h.79v.79h.79z"/>
</svg>
