<svg xmlns="http://www.w3.org/2000/svg" viewBox="0 0 24 24">
  <path fill="#FC6D26" d="m23.6004 9.5927-.0337-.0862L20.3.9814a.851.851 0 0 0-.3362-.405.8748.8748 0 0 0-.9997.0539.8748.8748 0 0 0-.29.4399l-2.2055 6.748H7.5375l-2.2057-6.748a.8573.8573 0 0 0-.29-.4412.8748.8748 0 0 0-.9997-.0537.8585.8585 0 0 0-.3362.4049L.4332 9.5015l-.0325.0862a6.0657 6.0657 0 0 0 2.0119 7.0105l.0113.0087.03.0213 4.976 3.7264 2.462 1.8633 1.4995 1.1321a1.0085 1.0085 0 0 0 1.2197 0l1.4995-1.1321 2.4619-1.8633 5.006-3.7477.0125-.01a6.0682 6.0682 0 0 0 2.0094-7.003z"/>
  <path fill="#E24329" d="m23.6004 9.5927-.0337-.0862a10.8838 10.8838 0 0 0-4.3587 2.0064L12 17.0179l5.0189 3.7965 5.006-3.7477.0125-.01a6.0682 6.0682 0 0 0 2.0094-7.003zM7.5187 20.8144l2.4619 1.8633 1.4995 1.1321a1.0085 1.0085 0 0 0 1.2197 0l1.4995-1.1321 2.4619-1.8633L12 17.0179z"/>
  <path fill="#FCA326" d="m4.7913 11.5129a10.8851 10.8851 0 0 0-4.3581-2.0064l-.0337.0862a6.0657 6.0657 0 0 0 2.0119 7.0105l.0113.0087.03.0213 4.976 3.7264L12 17.0179z"/>
</svg>
