<svg xmlns="http://www.w3.org/2000/svg" viewBox="0 0 24 24">
  <path fill="#C71A36" d="M3.234 9.247c.093-.163.321-.391.717-.391.263 0 .537.101.771.284.259.203.456.498.572.857.112.345.136.708.068 1.05-.07.351-.23.654-.464.878a1.19 1.19 0 0 1-.838.331c-.263 0-.523-.094-.753-.273-.254-.198-.452-.485-.574-.831-.122-.351-.153-.728-.09-1.09.063-.361.225-.657.591-.815zm-.236 5.793c-.276 0-.537-.086-.755-.248-.242-.181-.431-.445-.549-.762-.121-.328-.152-.68-.091-1.018.063-.352.218-.633.45-.813l.013-.01c.211-.155.463-.237.729-.237.276 0 .537.086.755.248.242.181.431.445.549.762.121.328.152.68.091 1.018-.063.351-.218.632-.451.813a1.148 1.148 0 0 1-.741.247zm-.001-3.548c-.396 0-.772.117-1.088.339l-.03.024c-.35.272-.596.673-.693 1.13-.095.447-.049.918.133 1.362.176.428.467.782.843 1.023.336.216.729.33 1.137.33s.801-.114 1.137-.33c.376-.241.667-.596.843-1.024.181-.442.227-.913.132-1.361-.097-.459-.344-.859-.693-1.13a1.6 1.6 0 0 0-1.118-.363l.055-.001zm3.235.459h.566l-.283 1.133h-.566zm-1.7 0h.567l-.284 1.133h-.566zm5.384-.459c-.389 0-.757.114-1.064.329a1.788 1.788 0 0 0-.666 1.069v.007c-.091.405-.05.834.117 1.24.164.398.438.731.793.964.318.209.688.319 1.072.319.384 0 .754-.11 1.072-.319.355-.233.629-.566.793-.964.167-.406.208-.835.117-1.24v-.007a1.789 1.789 0 0 0-.666-1.069 1.652 1.652 0 0 0-1.064-.329h-.504zm.001.459c.248 0 .484.076.684.219.221.158.385.391.476.674.092.286.096.588.013.875-.083.287-.246.525-.471.688a1.115 1.115 0 0 1-.702.224c-.248 0-.484-.076-.684-.219a1.274 1.274 0 0 1-.476-.674 1.346 1.346 0 0 1-.012-.875c.082-.287.245-.525.47-.688.2-.143.436-.224.702-.224zm5.158-.459c-.389 0-.757.114-1.063.329a1.79 1.79 0 0 0-.667 1.069v.007c-.091.405-.05.834.117 1.24.165.398.438.731.793.964.319.209.689.319 1.072.319.384 0 .754-.11 1.072-.319.355-.233.629-.566.793-.964.168-.406.208-.835.118-1.24v-.007a1.79 1.79 0 0 0-.667-1.069 1.65 1.65 0 0 0-1.064-.329h-.504zm.001.459c.248 0 .484.076.684.219.221.158.385.391.476.674.092.286.096.588.012.875-.082.287-.245.525-.47.688a1.115 1.115 0 0 1-.702.224c-.248 0-.484-.076-.684-.219a1.276 1.276 0 0 1-.476-.674 1.35 1.35 0 0 1-.013-.875c.083-.287.246-.525.471-.688.2-.143.436-.224.702-.224zM24 4.5v15a4.5 4.5 0 0 1-4.5 4.5h-15A4.5 4.5 0 0 1 0 19.5v-15A4.5 4.5 0 0 1 4.5 0h15A4.5 4.5 0 0 1 24 4.5zM6.883 6.846H4.727L2.784 9.783l-.426-.64L4.032 6.85H1.803l-.194.424h1.469l-1.82 2.541.017.025 2.09 3.091h.001l.001.001h2.259l.193-.425H4.363l-1.91-2.841 2.236-2.396h1.999zm4.094 1.592H7.5v.406h2.06v.824H7.5v1.613h1.512v.406H7.095V8.032h3.883zm2.906 0h-.405l-1.59 3.249h.446l.395-.84h1.898l.396.84h.459zm-.2.598l.75 1.573h-1.502zm3.24-.598v3.249h2.936v-.407h-2.53v-1.036h1.887v-.406h-1.887v-.994h2.448v-.406zm5.182 0h-.405l-1.589 3.249h.445l.396-.84h1.897l.396.84h.459zm-.2.598l.75 1.573H21.16z"/>
</svg>
