<svg xmlns="http://www.w3.org/2000/svg" viewBox="0 0 24 24">
  <path fill="#000000" d="M11.5725 0c-.1763 0-.3098.0013-.3584.0067-.0516.0053-.2159.021-.3636.0328-3.4088.3073-6.6017 2.1463-8.624 4.9728a11.8867 11.8867 0 0 0-2.0717 5.255A12.3379 12.3379 0 0 0 .3632 12c0 .0568.0009.1132.0019.1696.028 1.4095.2716 2.7847.7217 4.0737.8177 2.3383 2.1743 4.3763 3.9474 5.9257a11.9923 11.9923 0 0 0 7.5793 2.9888c.0562.0024.1124.003.1687.003h.0003c.4627 0 .9252-.0326 1.3797-.0977a11.9953 11.9953 0 0 0 4.7963-1.6387 12.0003 12.0003 0 0 0 4.9543-6.0126c.4907-1.2758.7896-2.6304.8782-4.0053.0256-.3952.0369-.793.0315-1.1891a12.0169 12.0169 0 0 0-.4042-2.9408 11.9794 11.9794 0 0 0-1.8653-4.1193A12.0053 12.0053 0 0 0 17.1068.8548C15.6056.2972 13.9894 0 12.343 0h-.4431c-.1127.0001-.2253.0019-.3274.0062zm.0565 1.1753a10.872 10.872 0 0 1 9.0134 4.8736l-5.2776 6.8992-3.8663-5.0556a.2092.2092 0 0 0-.3337 0l-3.8664 5.0556L2.462 6.0489a10.8752 10.8752 0 0 1 9.1671-4.8736zM1.5712 7.784l5.6313 7.0977-5.4568 6.901A10.8605 10.8605 0 0 1 1.1308 12c0-1.4773.2929-2.8863.827-4.178l-.3866-.0379zm20.4893.0379a10.8754 10.8754 0 0 1-.3837 8.4014l-4.8082-6.0745 5.192-6.5052a10.84 10.84 0 0 1-.0001 4.178zm-9.2176 1.2823l3.4898 4.5629-3.4898 4.4078-3.4898-4.4078 3.4898-4.5629zm-4.3665 5.7039l3.4899 4.4078.0004.0006-5.6563 2.0566a10.8472 10.8472 0 0 1-3.2833-3.4961l5.4493-2.968zm8.7329 0l5.4487 2.968a10.8434 10.8434 0 0 1-3.2833 3.4961l-5.6563-2.0566 3.4909-4.4075z"/>
</svg>
