<svg xmlns="http://www.w3.org/2000/svg" viewBox="0 0 24 24">
  <path fill="#FF6C37" d="M13.527.099C6.955-.744.942 3.9.099 10.473c-.843 6.572 3.8 12.584 10.373 13.428 6.573.843 12.587-3.801 13.428-10.374C24.744 6.955 20.101.943 13.527.099zm2.471 7.485a.855.855 0 0 0-.593.25l-4.453 4.453-.307-.307-.643-.643c4.389-4.376 5.18-4.418 5.996-3.753zm-4.863 4.861l4.44-4.44a.62.62 0 1 1 .847.903l-4.699 4.125zm.33.694l-1.1.238a.06.06 0 0 1-.067-.082l.391-.93zm-2.868-.78l4.238-.921-1.129.996-2.73 2.412a.44.44 0 0 1-.275.097.55.55 0 0 1-.394-.17l-.258-.258zm-1.446 1.447a.24.24 0 0 1 .27-.036.3.3 0 0 1 .159.164l.402.967-3.028 2.625a.29.29 0 0 1-.445-.062.28.28 0 0 1 .031-.298zm-1.487 3.15l2.968-2.57-.208.912-.208.873a.57.57 0 0 1-.084.165.125.125 0 0 1-.057.043.17.17 0 0 1-.06.018l-2.351.17zm-1.453.772a.15.15 0 0 1-.066-.033.19.19 0 0 1-.037-.036.22.22 0 0 1-.027-.059.26.26 0 0 1-.013-.065.33.33 0 0 1 .002-.074.18.18 0 0 1 .023-.06l.48-.677 2.31-.168z"/>
</svg>
