<svg xmlns="http://www.w3.org/2000/svg" viewBox="0 0 24 24">
  <path fill="#4169E1" d="M23.5594 14.7228a.5269.5269 0 0 0-.0563-.1191c-.139-.2632-.4768-.3418-1.0074-.2321-1.6533.3411-2.2935.1312-2.5256-.0191 1.342-2.0482 2.445-4.522 3.0411-6.8297.2714-1.0507.7982-3.5237.1222-4.7316a1.5641 1.5641 0 0 0-.1509-.235C21.6931.9086 19.8007.0248 17.5099.0005c-1.4947-.0158-2.7705.3461-3.1161.4648a9.8815 9.8815 0 0 0-2.1932-.2355A7.5965 7.5965 0 0 0 10.071.368C8.3511.0702 6.6592-.0629 5.1771.0243 2.1501.1979.3218 1.5408.0522 3.6597c-.1788 1.4046.1703 2.8874.672 4.6057.5949 2.0387 1.3898 4.1766 1.8896 5.1132.6146 1.1526 1.2841 1.693 1.9942 1.8807.5765.1524 1.2215.0842 1.8685-.1975.0255.1233.0469.4135.0496.8014.0089 1.2347-.0264 2.5734.0344 3.8254.0338.6927.1032 1.3617.3349 1.9002.0216.0504.0455.0995.0701.148.8479 1.6443 2.4528 1.7737 3.9314 1.6056l.1002-.0118c.4373-.0369.8753-.065 1.3099-.0858.6833-.0328 1.3657.0236 2.0554.0803.2907.0239.5815.0479.8744.0629 1.2461.0637 2.4826-.1828 3.1382-1.0837.5278-.7252.6166-1.8104.6385-2.8995.029-1.4456.0317-2.8943.0342-4.3426.0008-.4699.0013-.9398.0024-1.4096.0006-.2698.0366-.5181.0893-.7516.148.0084.2927.0116.4292.0088 1.2286-.0245 2.4812-.3088 3.2265-.743.3753-.2188.6393-.4718.7186-.7818a.5765.5765 0 0 0-.0051-.2874zM5.8064 13.5194c-.1474.054-.5244.1479-.8513.1479-.6966 0-1.1447-.352-1.5334-1.081-.5765-1.0825-1.3049-2.9902-1.8554-5.0089-.4413-1.6181-.7494-2.9085-.5983-4.0963.1937-1.5247 1.4571-2.5006 3.7833-2.6329 1.3698-.0792 2.935.0238 4.5235.2982a7.4654 7.4654 0 0 1 1.5491.4269c-1.2197.3784-2.048 1.2366-2.3524 2.1179-.2017.5836-.2165 1.1764-.0423 1.7165.1193.3706.3253.7066.5904.9952-.4012.8598-.7573 2.0184-.8916 3.4847-.2039 2.226.2289 3.9286.5263 4.5916-.2842.2227-.6126.4614-1.0207.6152-.6205.234-1.3723.3457-1.9272.5529zm9.5734 6.9698c-.4954.6812-1.4312.8463-2.414.7998-.2473-.0117-.4972-.0335-.7504-.0556-.675-.0556-1.3726-.1133-2.0806-.0793-.4044.0194-.8122.0458-1.2197.0792-.5765.0469-1.1167.1015-1.7098.0684l-.0911.0057c-.985.1123-1.9526.0524-2.464-.9373-.0101-.0191-.0182-.0419-.0274-.0622-.1486-.3998-.2003-.7849-.2282-1.3726-.0564-1.1919-.025-2.4695-.0343-3.657-.0046-.5765-.0544-.9841-.1484-1.2622.0857-.0792.1714-.1584.2492-.2455.1949-.2174.3762-.4544.5445-.7095.2261.2005.4833.3667.7674.4874.5702.2422 1.2052.2949 1.8328.1527.0851-.0192.1755-.0429.2643-.0689l.0207.2055c.0538.5376.0544.9738.005 1.2979-.0697.4594-.1053.7461-.0165 1.0112.1277.381.5048.6557.9167.6557.0847 0 .1714-.0112.2559-.0349.673-.1893.8737-.8235.9449-1.8898.019-.284.0214-.5925.0181-.9168a29.6156 29.6156 0 0 1 3.4713-.2987c.1748-.0076.2894-.0126.3514-.0285.4488-.1144.6698-.5151.7398-.8717.0747-.3794.0699-.7818.0315-1.1774a9.9632 9.9632 0 0 0-.0901-.6478c.2603-.1166.524-.2569.7859-.4211.3327-.2086.666-.4575.9765-.7458.0181.0407.0316.0854.0426.1325.0622.2652.0677.5892.0644.9376-.0023.4638-.0029.9336-.0037 1.4032-.0025 1.4457-.0052 2.8906-.0341 4.3301-.0189.9441-.0853 1.8658-.4765 2.4036zM12.5 14.2074c-.2353.0046-.4676.0106-.6987.0181.0254-.4169.0276-.8511-.0067-1.2942-.0628-.816.0044-1.5943.2235-2.297.5424.124 1.0968.1942 1.6516.2097l.0015.3632c.0028.682-.0112 1.1945-.0355 1.5671-.0499.7578-.16 1.0125-.3686 1.0711-.1092.0307-.3982.0451-.5914.0416-.093-.0017-.1836-.0002-.2694.0001a.3225.3225 0 0 0-.1063.0103zm7.3926-3.1188c-.4975.2891-1.4189.5322-2.4252.5527-.1073.0022-.2174.0001-.329-.0053.0108-.2278.015-.4522.0089-.6594a9.3972 9.3972 0 0 1 .0017-.296l.0014-.3634c.4173-.0177.8328-.0675 1.2321-.1515.6019-.1266 1.1398-.3291 1.5582-.6091l.0015.0043c.0506.1408.0961.3174.1346.5129.0691.35.1075.7355.0691 1.0661-.0112.0097-.0766.0294-.2533.0527zM13.9367 7.5283c-.1395-.039-.2873-.07-.4431-.0947-.4714-.0748-.9668-.0995-1.4575-.0849-.5074.0152-.9847.0792-1.4085.1885-.073-.2152-.076-.452.0021-.6782.238-.69.9613-1.3496 2.1798-1.5343 1.2339-.187 2.1768.1066 2.4816.4727.0516.0621.0942.1306.1225.1999l-.0116.0098c-.4017.3441-.9185.7628-1.4653 1.5212zm-.5406-.6067c.108.0178.214.039.318.0635a13.9497 13.9497 0 0 0-.318-.0635zm5.3461-4.4032c1.8291.0186 3.3627.7295 4.3612 2.0105.1001.1285.1836.2722.2495.4271.1773.417.2403.9217.2201 1.4645-.0368.989-.3011 2.1293-.6537 3.2436a19.6986 19.6986 0 0 1-1.8453 4.3178c-.0334-.0615-.0679-.119-.1029-.1753-.1044-.168-.2251-.3093-.3586-.4393.2089-.6316.3737-1.2794.4819-1.9233.1459-.8684.2037-1.7592.0887-2.5772-.0885-.6292-.2898-1.2149-.661-1.7029-.3734-.4912-.9013-.8571-1.5587-1.0454-.2032-.0582-.42-.1009-.6472-.1271.0032-.0053.0064-.0106.0089-.0166.2012-.5003.1419-1.0378-.0912-1.5058-.0647-.13-.1434-.2558-.2329-.3764.4789-.1037 1.116-.1927 1.8341-.192.2972-.0034.5999.0052.9071.0178z"/>
</svg>
