<svg xmlns="http://www.w3.org/2000/svg" viewBox="0 0 24 24">
  <path fill="#5391FE" d="M23.181 2.974c.568 0 .923.463.792 1.035l-3.659 15.982c-.13.572-.697 1.035-1.265 1.035H.819c-.568 0-.923-.463-.792-1.035L3.686 4.009c.13-.572.697-1.035 1.265-1.035zm-8.375 9.346c.251-.394.227-.905-.09-1.243L9.122 5.125c-.38-.404-1.037-.407-1.466-.003-.429.402-.468 1.056-.088 1.46l4.662 4.96v.11l-7.42 5.374c-.45.327-.55.97-.224 1.434.326.463.982.556 1.463.205l7.869-5.707c.319-.232.59-.413.888-.638zM13.438 16.724a.982.982 0 0 0-.981.983.98.98 0 0 0 .981.981h4.925a.981.981 0 0 0 .982-.981.983.983 0 0 0-.982-.983z"/>
</svg>
