<svg xmlns="http://www.w3.org/2000/svg" viewBox="0 0 24 24">
  <path fill="#F2C811" d="M10.008 3.083A1.76 1.76 0 0 0 8.247 4.84v14.32a1.76 1.76 0 0 0 1.761 1.757h2.585a1.76 1.76 0 0 0 1.76-1.757V4.84a1.76 1.76 0 0 0-1.76-1.757zm5.993 3.631a1.76 1.76 0 0 0-1.76 1.757V19.16a1.76 1.76 0 0 0 1.76 1.757h2.585A1.76 1.76 0 0 0 20.347 19.16V8.471a1.76 1.76 0 0 0-1.76-1.757zm-11.986 4.05a1.76 1.76 0 0 0-1.76 1.756v6.64A1.76 1.76 0 0 0 4.015 20.917h2.585a1.76 1.76 0 0 0 1.76-1.757v-6.64a1.76 1.76 0 0 0-1.76-1.756z"/>
</svg>
