<svg xmlns="http://www.w3.org/2000/svg" viewBox="0 0 24 24">
  <path fill="#6DB33F" d="M21.8537 1.4158a10.4504 10.4504 0 0 1-1.284 2.2471A11.9666 11.9666 0 1 0 3.8518 20.7757l.4445.3951a11.9543 11.9543 0 0 0 19.6316-8.2971c.3457-3.0126-.568-6.8649-2.0743-11.4579zM5.5805 20.8745a1.0792 1.0792 0 1 1-.0123-2.1582 1.0792 1.0792 0 0 1 .0123 2.1582zm16.1817-3.9494c-2.5654 3.2322-6.3945 4.1156-10.2667 3.7948 0 0-.494-.0494-.9879-.1235 0 0 .1851-.0988.4198-.1851 1.9262-.6667 2.8344-.7901 4.0049-1.3827 2.1953-1.1111 4.3906-3.5432 4.8351-6.0716-1.7778 3.3333-7.1844 4.9135-10.7407 4.9135l-.4692-.0988c-.3704-.2099-1.0864-.6173-.9632-.7408 1.7778-.3703 3.8025-.5802 5.5062-1.5308 2.6707-1.5802 5.3415-5.0123 5.8395-8.5679-1.0617 2.7654-4.4444 5.3415-7.4568 6.3457-2.0494.6914-5.7531 1.358-6.6173 1.0864-.0617-.0123-.1481-.0494-.1481-.0741 3.7037-1.5802 6.4691-3.9506 9.2593-6.8395 1.3086-1.358 2.3127-2.8591 2.8344-4.1156.4444 1.2346.5185 3.1357.0988 5.6296l.2222-.0494c1.0123-3.3827.8889-7.2593.2963-9.4568 2.7161 4.8104 3.0617 10.1728.6667 13.5802z"/>
</svg>
