<svg xmlns="http://www.w3.org/2000/svg" viewBox="0 0 24 24">
  <defs>
    <linearGradient id="swift-gradient" x1="0%" x2="100%" y1="0%" y2="100%">
      <stop offset="0%" stop-color="#F05138"/>
      <stop offset="100%" stop-color="#EF4D4D"/>
    </linearGradient>
  </defs>
  <path fill="url(#swift-gradient)" d="M7.508 0c-.287 0-.573 0-.86.002-.241.002-.483.003-.724.01-.132.003-.263.009-.395.015A9.154 9.154 0 0 0 4.348.15 5.492 5.492 0 0 0 2.85.645 5.04 5.04 0 0 0 .645 2.848c-.245.48-.4.972-.495 1.5-.093.52-.122 1.05-.136 1.576a35.2 35.2 0 0 0-.012.724C0 6.935 0 7.221 0 7.508v8.984c0 .287 0 .575.002.862.002.24.005.481.012.722.014.526.043 1.057.136 1.576.095.528.25 1.02.495 1.5a5.03 5.03 0 0 0 2.205 2.203c.48.244.97.4 1.498.495.52.093 1.05.124 1.576.138.241.007.483.009.724.01.287.002.573.002.86.002h8.984c.287 0 .573 0 .86-.002.241-.001.483-.003.724-.01a10.523 10.523 0 0 0 1.578-.138 5.322 5.322 0 0 0 1.498-.495 5.035 5.035 0 0 0 2.203-2.203c.245-.48.4-.972.495-1.5.093-.52.124-1.05.138-1.576.007-.241.009-.481.01-.722.002-.287.002-.575.002-.862V7.508c0-.287 0-.573-.002-.86a33.662 33.662 0 0 0-.01-.724 10.5 10.5 0 0 0-.138-1.576 5.328 5.328 0 0 0-.495-1.5A5.04 5.04 0 0 0 21.152.645 5.32 5.32 0 0 0 19.654.15a10.493 10.493 0 0 0-1.578-.138 34.98 34.98 0 0 0-.724-.01C17.065 0 16.779 0 16.492 0Zm6.035 3.41c.003.006.01.01.013.016a9.14 9.14 0 0 1 .635 1.11c1.463 2.98 1.02 6.016.228 8.023-.147.373-.316.732-.505 1.075l.01.02c.96-.467 3.004-1.76 4.903-4.218.09-.12.166-.245.102-.373-.062-.127-.19-.139-.286-.139h-.023a11.64 11.64 0 0 1-3.317.14 19.626 19.626 0 0 1-2.26-.495 12.267 12.267 0 0 1-.862-.301 15.402 15.402 0 0 1-.802-.333 19.146 19.146 0 0 1-1.065-.511 17.32 17.32 0 0 1-.943-.512 19.146 19.146 0 0 1-.841-.531 14.76 14.76 0 0 1-.744-.518 14.07 14.07 0 0 1-.662-.51 12.03 12.03 0 0 1-.502-.415 9.84 9.84 0 0 1-.369-.333 8.06 8.06 0 0 1-.264-.259 5.98 5.98 0 0 1-.19-.2 6.2 6.2 0 0 1-.117-.127 2.18 2.18 0 0 1-.076-.088l-.013-.013-.016-.019-.004-.003.01.01.023.022c.053.052.12.12.211.201.09.082.193.18.314.283.121.104.256.218.404.336.149.118.308.241.48.365.171.124.348.249.536.373.188.125.378.245.575.363l.021.013c-2.896-2.07-5.316-5.014-6.396-6.656-.083-.127-.226-.21-.346-.174-.118.036-.14.18-.12.28.056.305.153.692.281 1.137.262.91.641 2.05 1.134 3.18a17.097 17.097 0 0 0 1.695 3.132 12.195 12.195 0 0 0 2.274 2.602c-1.065.393-3.153.822-5.918.1-.135-.035-.266.086-.217.233.95 2.885 3.22 4.808 5.693 5.86a11.33 11.33 0 0 0 3.57.99c.15.015.294.028.432.039 1.023.087 1.948.036 2.655-.035 1.062-.107 1.72-.278 1.72-.278s-.31.372-.882.925a12.49 12.49 0 0 1-.832.72c-1.617 1.28-4.043 2.503-7.24 2.503-.05 0-.1 0-.149-.002a.158.158 0 0 0-.11.047.161.161 0 0 0-.048.11c0 .046.02.09.054.122.032.031.09.065.171.103.44.21 1.323.576 2.489.848a16.167 16.167 0 0 0 3.622.409c4.609 0 7.747-2.204 9.247-4.68a10.054 10.054 0 0 0 1.483-6.14c-.07-.7-.21-1.315-.304-1.697a10.58 10.58 0 0 0-.406-1.167Z"/>
</svg>
